<mxfile host="app.diagrams.net" modified="2023-07-17T01:41:03.006Z" agent="Mozilla/5.0 (Windows NT 10.0; Win64; x64) AppleWebKit/537.36 (KHTML, like Gecko) Chrome/114.0.0.0 Safari/537.36" etag="00FqX7YPcreD962Q7r9S" version="21.3.7" type="github">
  <diagram name="第 1 页" id="8oceNLbQzsIbyj7hgdSK">
    <mxGraphModel dx="1674" dy="796" grid="1" gridSize="10" guides="1" tooltips="1" connect="1" arrows="1" fold="1" page="1" pageScale="1" pageWidth="827" pageHeight="1169" math="0" shadow="0">
      <root>
        <mxCell id="0" />
        <mxCell id="1" parent="0" />
        <mxCell id="FaNWeh73rzY6T8FfO7Cz-1" value="Actor" style="shape=umlActor;verticalLabelPosition=bottom;verticalAlign=top;html=1;outlineConnect=0;" parent="1" vertex="1">
          <mxGeometry x="170" y="280" width="30" height="60" as="geometry" />
        </mxCell>
        <mxCell id="FaNWeh73rzY6T8FfO7Cz-2" value="" style="ellipse;whiteSpace=wrap;html=1;" parent="1" vertex="1">
          <mxGeometry x="520" y="280" width="120" height="80" as="geometry" />
        </mxCell>
        <mxCell id="FaNWeh73rzY6T8FfO7Cz-4" value="상품" style="text;html=1;strokeColor=none;fillColor=none;align=center;verticalAlign=middle;whiteSpace=wrap;rounded=0;" parent="1" vertex="1">
          <mxGeometry x="550" y="310" width="60" height="30" as="geometry" />
        </mxCell>
        <mxCell id="FaNWeh73rzY6T8FfO7Cz-5" value="" style="endArrow=none;html=1;rounded=0;" parent="1" edge="1">
          <mxGeometry width="50" height="50" relative="1" as="geometry">
            <mxPoint x="240" y="320" as="sourcePoint" />
            <mxPoint x="510" y="320" as="targetPoint" />
          </mxGeometry>
        </mxCell>
        <mxCell id="FaNWeh73rzY6T8FfO7Cz-7" value="" style="ellipse;whiteSpace=wrap;html=1;" parent="1" vertex="1">
          <mxGeometry x="520" y="190" width="120" height="80" as="geometry" />
        </mxCell>
        <mxCell id="FaNWeh73rzY6T8FfO7Cz-8" value="결제" style="text;html=1;strokeColor=none;fillColor=none;align=center;verticalAlign=middle;whiteSpace=wrap;rounded=0;" parent="1" vertex="1">
          <mxGeometry x="550" y="220" width="60" height="30" as="geometry" />
        </mxCell>
        <mxCell id="FaNWeh73rzY6T8FfO7Cz-11" value="" style="ellipse;whiteSpace=wrap;html=1;" parent="1" vertex="1">
          <mxGeometry x="520" y="390" width="120" height="80" as="geometry" />
        </mxCell>
        <mxCell id="FaNWeh73rzY6T8FfO7Cz-12" value="게시판" style="text;html=1;strokeColor=none;fillColor=none;align=center;verticalAlign=middle;whiteSpace=wrap;rounded=0;" parent="1" vertex="1">
          <mxGeometry x="550" y="380" width="60" height="70" as="geometry" />
        </mxCell>
        <mxCell id="FaNWeh73rzY6T8FfO7Cz-13" value="" style="endArrow=none;html=1;rounded=0;" parent="1" edge="1">
          <mxGeometry width="50" height="50" relative="1" as="geometry">
            <mxPoint x="250" y="320" as="sourcePoint" />
            <mxPoint x="510" y="234.5" as="targetPoint" />
          </mxGeometry>
        </mxCell>
        <mxCell id="FaNWeh73rzY6T8FfO7Cz-14" value="" style="endArrow=none;html=1;rounded=0;" parent="1" edge="1">
          <mxGeometry width="50" height="50" relative="1" as="geometry">
            <mxPoint x="240" y="320" as="sourcePoint" />
            <mxPoint x="530" y="419" as="targetPoint" />
          </mxGeometry>
        </mxCell>
        <mxCell id="FaNWeh73rzY6T8FfO7Cz-17" value="" style="endArrow=classic;html=1;rounded=0;dashed=1;" parent="1" edge="1">
          <mxGeometry width="50" height="50" relative="1" as="geometry">
            <mxPoint x="810" y="324.5" as="sourcePoint" />
            <mxPoint x="660" y="324.5" as="targetPoint" />
          </mxGeometry>
        </mxCell>
        <mxCell id="FaNWeh73rzY6T8FfO7Cz-18" value="&amp;lt;&amp;lt;extend&amp;gt;&amp;gt;" style="text;html=1;strokeColor=none;fillColor=none;align=center;verticalAlign=middle;whiteSpace=wrap;rounded=0;" parent="1" vertex="1">
          <mxGeometry x="690" y="280" width="60" height="30" as="geometry" />
        </mxCell>
      </root>
    </mxGraphModel>
  </diagram>
</mxfile>
